<?xml version="1.0" encoding="UTF-8" standalone="no"?>
<!DOCTYPE svg PUBLIC "-//W3C//DTD SVG 1.1//EN" "http://www.w3.org/Graphics/SVG/1.1/DTD/svg11.dtd">
<svg width="100%" height="100%" viewBox="0 0 200 200" version="1.1" xmlns="http://www.w3.org/2000/svg" xmlns:xlink="http://www.w3.org/1999/xlink" xml:space="preserve" xmlns:serif="http://www.serif.com/" style="fill-rule:evenodd;clip-rule:evenodd;stroke-linejoin:round;stroke-miterlimit:2;">
    <g id="Artboard2" transform="matrix(3.44797,0,0,4.39374,261.284,199.164)">
        <rect x="-75.779" y="-45.329" width="57.763" height="45.329" style="fill:none;"/>
        <g transform="matrix(0.872091,0,0,0.872091,-6.95116,-0.960622)">
            <g transform="matrix(0.104585,0,0,0.0820731,-77.35,-59.4421)">
                <path d="M440.646,543.622L162.581,543.622C136.278,543.622 113.891,524.469 109.82,498.482C99.807,434.576 80.909,313.955 80.909,313.955C80.436,310.938 81.809,307.93 84.398,306.31C86.987,304.69 90.293,304.771 92.799,306.515L200.938,381.778L281.46,252.497C286.682,244.113 295.857,239.013 305.735,239.004C315.612,238.995 324.796,244.079 330.033,252.454L408.29,377.601L510.427,306.515C512.934,304.771 516.24,304.69 518.829,306.31C521.418,307.93 522.79,310.938 522.318,313.955C522.318,313.955 503.42,434.576 493.407,498.482C489.335,524.469 466.949,543.622 440.646,543.622ZM288.263,461.136L98.741,329.233C104.358,365.087 117.225,447.213 124.888,496.121C127.797,514.687 143.79,528.37 162.581,528.37L191.66,528.37L288.263,461.136ZM394.32,387.324L315.619,261.467C313.492,258.065 309.762,256 305.75,256.004C301.738,256.008 298.011,258.079 295.89,261.485L214.91,391.501L301.613,451.845L394.32,387.324ZM218.36,528.37L440.646,528.37C459.437,528.37 475.43,514.687 478.338,496.121C486.002,447.213 498.869,365.087 504.486,329.233L218.36,528.37Z" style="stroke:rgb(237,237,237);stroke-width:47.7px;"/>
            </g>
            <g transform="matrix(0.104585,0,0,0.0820731,-77.7052,-60.0911)">
                <path d="M422.601,432.551L306.348,489.064L187.417,435.642L295.89,261.485C298.011,258.079 301.738,256.008 305.75,256.004C309.762,256 313.492,258.065 315.619,261.467L422.601,432.551Z" style="fill:white;"/>
            </g>
            <g transform="matrix(0.104585,0,0,0.0820731,-77.7052,-60.0911)">
                <path d="M89.434,312.775C89.434,312.775 108.332,433.396 118.345,497.302C121.835,519.578 141.025,535.996 163.572,535.996L410.165,535.996L89.434,312.775Z" style="fill:white;"/>
            </g>
            <g transform="matrix(0.104585,0,0,0.0820731,-77.7052,-60.0911)">
                <path d="M522.565,312.775C522.565,312.775 503.668,433.396 493.655,497.302C490.165,519.578 470.975,535.996 448.428,535.996L201.835,535.996L522.565,312.775Z" style="fill:white;"/>
            </g>
            <g transform="matrix(0.104585,0,0,0.0820731,-77.7052,-60.0911)">
                <path d="M422.601,432.551L306.348,489.064L187.417,435.642L295.89,261.485C298.011,258.079 301.738,256.008 305.75,256.004C309.762,256 313.492,258.065 315.619,261.467L422.601,432.551Z" style="fill:white;"/>
            </g>
            <g transform="matrix(0.104585,0,0,0.0820731,-77.7052,-60.0911)">
                <path d="M89.434,312.775C89.434,312.775 108.332,433.396 118.345,497.302C121.835,519.578 141.025,535.996 163.572,535.996L410.165,535.996L89.434,312.775Z" style="fill:rgb(165,232,229);"/>
            </g>
            <g transform="matrix(0.104585,0,0,0.0820731,-77.7052,-60.0911)">
                <path d="M522.565,312.775C522.565,312.775 503.668,433.396 493.655,497.302C490.165,519.578 470.975,535.996 448.428,535.996L201.835,535.996L522.565,312.775Z" style="fill:rgb(213,213,213);"/>
            </g>
            <g transform="matrix(0.104585,0,0,0.0820731,-77.35,-59.4421)">
                <path d="M440.646,543.622L162.581,543.622C136.278,543.622 113.891,524.469 109.82,498.482C99.807,434.576 80.909,313.955 80.909,313.955C80.436,310.938 81.809,307.93 84.398,306.31C86.987,304.69 90.293,304.771 92.799,306.515L200.938,381.778L281.46,252.497C286.682,244.113 295.857,239.013 305.735,239.004C315.612,238.995 324.796,244.079 330.033,252.454L408.29,377.601L510.427,306.515C512.934,304.771 516.24,304.69 518.829,306.31C521.418,307.93 522.79,310.938 522.318,313.955C522.318,313.955 503.42,434.576 493.407,498.482C489.335,524.469 466.949,543.622 440.646,543.622ZM288.263,461.136L98.741,329.233C104.358,365.087 117.225,447.213 124.888,496.121C127.797,514.687 143.79,528.37 162.581,528.37L191.66,528.37L288.263,461.136ZM394.32,387.324L315.619,261.467C313.492,258.065 309.762,256 305.75,256.004C301.738,256.008 298.011,258.079 295.89,261.485L214.91,391.501L301.613,451.845L394.32,387.324ZM218.36,528.37L440.646,528.37C459.437,528.37 475.43,514.687 478.338,496.121C486.002,447.213 498.869,365.087 504.486,329.233L218.36,528.37Z" style="fill:rgb(58,58,58);"/>
            </g>
            <g transform="matrix(0.4985,0,0,0.391196,-89.0345,-73.8401)">
                <g transform="matrix(12,0,0,12,120.966,169.816)">
                </g>
                <text x="52.23px" y="169.816px" style="font-family:'Prompt-Medium', 'Prompt';font-weight:500;font-size:12px;fill:rgb(45,45,45);">K<tspan x="58.842px 68.454px 78.366px 80.01px 84.33px 90.138px 98.142px 106.35px 114.162px " y="169.816px 169.816px 169.816px 169.816px 169.816px 169.816px 169.816px 169.816px 169.816px ">OMI PACKS</tspan></text>
            </g>
        </g>
    </g>
</svg>
