<?xml version="1.0" encoding="UTF-8" standalone="no"?>
<!DOCTYPE svg PUBLIC "-//W3C//DTD SVG 1.1//EN" "http://www.w3.org/Graphics/SVG/1.1/DTD/svg11.dtd">
<svg width="100%" height="100%" viewBox="0 0 2500 1186" version="1.1" xmlns="http://www.w3.org/2000/svg" xmlns:xlink="http://www.w3.org/1999/xlink" xml:space="preserve" xmlns:serif="http://www.serif.com/" style="fill-rule:evenodd;clip-rule:evenodd;stroke-linejoin:round;stroke-miterlimit:2;">
    <g transform="matrix(7.37374,0,0,7.37374,-534.036,-313.712)">
        <path d="M108.783,100.642L108.783,55.192C108.783,53.508 108.951,52.498 111.814,52.498L150.359,52.498C157.093,52.498 160.796,58.222 163.49,68.994L165.678,77.58L172.242,77.58C173.419,53.174 174.428,42.569 174.428,42.569C174.428,42.569 157.933,44.42 148.17,44.42L98.854,44.42L72.423,43.578L72.423,50.648L81.346,52.331C87.574,53.51 89.086,54.855 89.595,60.58C89.595,60.58 90.101,77.412 90.101,105.187C90.101,132.958 89.595,149.624 89.595,149.624C89.595,154.673 87.574,156.524 81.346,157.706L72.423,159.39L72.423,166.456L98.854,165.616L142.955,165.616C152.886,165.616 175.946,166.456 175.946,166.456C176.449,160.395 179.818,132.958 180.323,129.932L174.095,129.932L167.53,144.913C162.311,156.693 154.738,157.536 146.32,157.536L121.238,157.536C112.821,157.536 108.781,154.169 108.781,146.932L108.781,108.553C108.781,108.553 127.128,108.553 133.523,109.059C138.237,109.397 141.097,110.743 142.614,117.307L144.635,126.06L151.869,126.06L151.366,104.007L152.375,81.79L145.139,81.79L142.784,91.552C141.267,97.948 140.259,99.129 133.693,99.8C126.288,100.644 108.78,100.475 108.78,100.475L108.78,100.642L108.783,100.642ZM208.599,59.906C206.242,70.342 203.885,78.421 195.637,83.808C190.588,87.173 185.537,88.35 183.52,88.519L183.52,94.915L198.5,94.915L198.5,146.59C198.5,161.068 208.096,168.139 220.887,168.139C230.819,168.139 241.085,163.931 244.621,155.176L241.085,150.631C239.401,153.494 234.018,157.701 227.284,157.701C219.879,157.701 215.839,152.65 215.839,139.86L215.839,94.245L240.753,96.098L242.098,84.649L215.84,85.66L215.84,60.073L208.599,59.906ZM261.791,139.39L255.395,139.558C255.731,143.26 255.901,147.975 255.901,152.351C255.901,156.896 255.733,161.104 255.395,163.123C255.395,163.123 268.188,167.832 281.149,167.832C298.655,167.832 312.627,159.416 312.627,142.92C312.627,114.645 270.209,118.854 270.209,99.83C270.209,91.92 277.278,88.889 285.021,88.889C291.081,88.889 296.13,91.077 297.14,94.278L301.349,106.902L307.578,106.566C308.084,99.832 308.419,92.089 309.43,85.862C304.042,83.505 292.763,82.156 285.699,82.156C269.199,82.156 255.904,89.395 255.904,105.555C255.904,133.664 297.31,127.941 297.31,148.648C297.31,156.051 292.763,161.27 282.498,161.27C273.074,161.27 268.359,156.39 266.511,151.506L261.791,139.39ZM363.244,158.836C353.499,186.057 341.57,193.109 330.818,193.109C326.279,193.109 324.097,191.091 323.422,187.904L320.902,174.795L313.844,175.131C312.5,182.861 311.156,191.433 309.31,198.488C313.511,201.676 320.564,203.36 326.111,203.36C337.707,203.36 355.347,201.845 371.474,163.539L398.527,99.694C400.713,94.484 401.55,93.98 407.935,91.458L411.464,90.117L411.464,84.236L395.501,85.076L378.364,84.236L378.364,90.117L382.73,91.458C387.097,92.805 389.117,94.484 389.117,97.509C389.117,99.02 388.611,100.533 387.769,102.883C385.249,109.272 369.623,147.242 365.427,155.309L369.622,153.794C362.228,135.481 350.976,104.899 349.294,99.695C348.958,98.686 348.79,97.846 348.79,97.002C348.79,94.315 350.638,92.13 354.671,91.291L360.216,90.118L360.216,84.237L337.195,85.077L318.882,84.237L318.882,90.118L321.907,91.125C326.107,92.469 327.116,93.646 329.636,99.526C343.577,131.451 350.134,148.922 359.035,171.775L363.244,158.836Z" style="fill-rule:nonzero;"/>
    </g>
</svg>
