<?xml version="1.0" encoding="UTF-8" standalone="no"?>
<!DOCTYPE svg PUBLIC "-//W3C//DTD SVG 1.1//EN" "http://www.w3.org/Graphics/SVG/1.1/DTD/svg11.dtd">
<svg width="100%" height="100%" viewBox="0 0 160 165" version="1.1" xmlns="http://www.w3.org/2000/svg" xmlns:xlink="http://www.w3.org/1999/xlink" xml:space="preserve" xmlns:serif="http://www.serif.com/" style="fill-rule:evenodd;clip-rule:evenodd;stroke-linejoin:round;stroke-miterlimit:2;">
    <g transform="matrix(1,0,0,1,-156.991,-184.466)">
        <g id="Artboard2" transform="matrix(2.76055,0,0,3.61821,366.183,348.476)">
            <rect x="-75.779" y="-45.329" width="57.763" height="45.329" style="fill:none;"/>
            <g transform="matrix(1.08926,0,0,1.05901,2.9963,-0.230613)">
                <g transform="matrix(0.104585,0,0,0.0820731,-77.35,-59.4421)">
                    <path d="M440.646,543.622L162.581,543.622C136.278,543.622 113.891,524.469 109.82,498.482C99.807,434.576 80.909,313.955 80.909,313.955C80.436,310.938 81.809,307.93 84.398,306.31C86.987,304.69 90.293,304.771 92.799,306.515L200.938,381.778L281.46,252.497C286.682,244.113 295.857,239.013 305.735,239.004C315.612,238.995 324.796,244.079 330.033,252.454L408.29,377.601L510.427,306.515C512.934,304.771 516.24,304.69 518.829,306.31C521.418,307.93 522.79,310.938 522.318,313.955C522.318,313.955 503.42,434.576 493.407,498.482C489.335,524.469 466.949,543.622 440.646,543.622ZM288.263,461.136L98.741,329.233C104.358,365.087 117.225,447.213 124.888,496.121C127.797,514.687 143.79,528.37 162.581,528.37L191.66,528.37L288.263,461.136ZM394.32,387.324L315.619,261.467C313.492,258.065 309.762,256 305.75,256.004C301.738,256.008 298.011,258.079 295.89,261.485L214.91,391.501L301.613,451.845L394.32,387.324ZM218.36,528.37L440.646,528.37C459.437,528.37 475.43,514.687 478.338,496.121C486.002,447.213 498.869,365.087 504.486,329.233L218.36,528.37Z" style="stroke:rgb(237,237,237);stroke-width:47.7px;"/>
                </g>
                <g transform="matrix(0.104585,0,0,0.0820731,-77.7052,-60.0911)">
                    <path d="M422.601,432.551L306.348,489.064L187.417,435.642L295.89,261.485C298.011,258.079 301.738,256.008 305.75,256.004C309.762,256 313.492,258.065 315.619,261.467L422.601,432.551Z" style="fill:white;"/>
                </g>
                <g transform="matrix(0.104585,0,0,0.0820731,-77.7052,-60.0911)">
                    <path d="M89.434,312.775C89.434,312.775 108.332,433.396 118.345,497.302C121.835,519.578 141.025,535.996 163.572,535.996L410.165,535.996L89.434,312.775Z" style="fill:white;"/>
                </g>
                <g transform="matrix(0.104585,0,0,0.0820731,-77.7052,-60.0911)">
                    <path d="M522.565,312.775C522.565,312.775 503.668,433.396 493.655,497.302C490.165,519.578 470.975,535.996 448.428,535.996L201.835,535.996L522.565,312.775Z" style="fill:white;"/>
                </g>
                <g transform="matrix(0.104585,0,0,0.0820731,-77.7052,-60.0911)">
                    <path d="M422.601,432.551L306.348,489.064L187.417,435.642L295.89,261.485C298.011,258.079 301.738,256.008 305.75,256.004C309.762,256 313.492,258.065 315.619,261.467L422.601,432.551Z" style="fill:white;"/>
                </g>
                <g transform="matrix(0.104585,0,0,0.0820731,-77.7052,-60.0911)">
                    <path d="M89.434,312.775C89.434,312.775 108.332,433.396 118.345,497.302C121.835,519.578 141.025,535.996 163.572,535.996L410.165,535.996L89.434,312.775Z" style="fill:rgb(165,232,229);"/>
                </g>
                <g transform="matrix(0.104585,0,0,0.0820731,-77.7052,-60.0911)">
                    <path d="M522.565,312.775C522.565,312.775 503.668,433.396 493.655,497.302C490.165,519.578 470.975,535.996 448.428,535.996L201.835,535.996L522.565,312.775Z" style="fill:rgb(213,213,213);"/>
                </g>
                <g transform="matrix(0.104585,0,0,0.0820731,-77.35,-59.4421)">
                    <path d="M440.646,543.622L162.581,543.622C136.278,543.622 113.891,524.469 109.82,498.482C99.807,434.576 80.909,313.955 80.909,313.955C80.436,310.938 81.809,307.93 84.398,306.31C86.987,304.69 90.293,304.771 92.799,306.515L200.938,381.778L281.46,252.497C286.682,244.113 295.857,239.013 305.735,239.004C315.612,238.995 324.796,244.079 330.033,252.454L408.29,377.601L510.427,306.515C512.934,304.771 516.24,304.69 518.829,306.31C521.418,307.93 522.79,310.938 522.318,313.955C522.318,313.955 503.42,434.576 493.407,498.482C489.335,524.469 466.949,543.622 440.646,543.622ZM288.263,461.136L98.741,329.233C104.358,365.087 117.225,447.213 124.888,496.121C127.797,514.687 143.79,528.37 162.581,528.37L191.66,528.37L288.263,461.136ZM394.32,387.324L315.619,261.467C313.492,258.065 309.762,256 305.75,256.004C301.738,256.008 298.011,258.079 295.89,261.485L214.91,391.501L301.613,451.845L394.32,387.324ZM218.36,528.37L440.646,528.37C459.437,528.37 475.43,514.687 478.338,496.121C486.002,447.213 498.869,365.087 504.486,329.233L218.36,528.37Z" style="fill:rgb(58,58,58);"/>
                </g>
                <g transform="matrix(1.2524,0,0,0.982815,-129.967,-169.616)">
                    <g transform="matrix(12,0,0,12,52.2299,169.816)">
                        <path d="M0.06,-0.699L0.187,-0.699L0.187,-0.382L0.474,-0.699L0.626,-0.699L0.316,-0.357L0.646,-0L0.494,-0L0.187,-0.332L0.187,-0L0.06,-0L0.06,-0.699Z" style="fill:rgb(45,45,45);fill-rule:nonzero;"/>
                    </g>
                    <g transform="matrix(12,0,0,12,58.8419,169.816)">
                        <path d="M0.411,0.015C0.341,0.015 0.278,-0 0.222,-0.031C0.165,-0.061 0.121,-0.104 0.089,-0.159C0.056,-0.214 0.04,-0.278 0.04,-0.349C0.04,-0.42 0.056,-0.484 0.089,-0.539C0.121,-0.594 0.165,-0.637 0.222,-0.668C0.278,-0.699 0.341,-0.714 0.411,-0.714C0.48,-0.714 0.543,-0.699 0.6,-0.668C0.656,-0.637 0.7,-0.594 0.733,-0.539C0.765,-0.484 0.781,-0.42 0.781,-0.349C0.781,-0.278 0.765,-0.215 0.733,-0.16C0.7,-0.105 0.656,-0.062 0.6,-0.031C0.543,-0 0.48,0.015 0.411,0.015ZM0.411,-0.1C0.456,-0.1 0.496,-0.11 0.533,-0.131C0.57,-0.151 0.599,-0.18 0.621,-0.218C0.642,-0.255 0.653,-0.299 0.653,-0.349C0.653,-0.398 0.642,-0.442 0.621,-0.48C0.6,-0.517 0.571,-0.546 0.534,-0.567C0.497,-0.588 0.456,-0.598 0.411,-0.598C0.366,-0.598 0.325,-0.588 0.288,-0.567C0.251,-0.546 0.221,-0.517 0.2,-0.48C0.179,-0.442 0.168,-0.398 0.168,-0.349C0.168,-0.299 0.179,-0.255 0.201,-0.218C0.222,-0.18 0.252,-0.151 0.289,-0.131C0.326,-0.11 0.366,-0.1 0.411,-0.1Z" style="fill:rgb(45,45,45);fill-rule:nonzero;"/>
                    </g>
                    <g transform="matrix(12,0,0,12,68.0939,169.816)">
                        <path d="M0.06,-0.699L0.184,-0.699L0.418,-0.187L0.652,-0.699L0.776,-0.699L0.776,-0L0.656,-0L0.656,-0.454L0.448,-0L0.388,-0L0.18,-0.454L0.18,-0L0.06,-0L0.06,-0.699Z" style="fill:rgb(45,45,45);fill-rule:nonzero;"/>
                    </g>
                    <g transform="matrix(12,0,0,12,78.0059,169.816)">
                        <rect x="0.06" y="-0.699" width="0.127" height="0.699" style="fill:rgb(45,45,45);fill-rule:nonzero;"/>
                    </g>
                </g>
            </g>
        </g>
    </g>
</svg>
